<mxfile host="app.diagrams.net" modified="2021-08-12T06:49:43.452Z" agent="5.0 (Macintosh; Intel Mac OS X 10_15_7) AppleWebKit/537.36 (KHTML, like Gecko) Chrome/92.0.4515.107 Safari/537.36" etag="Fx4GmHhiWJdaN7mzC6U9" version="14.9.2" type="github">
  <diagram id="C5RBs43oDa-KdzZeNtuy" name="Page-1">
    <mxGraphModel dx="2066" dy="1097" grid="1" gridSize="10" guides="1" tooltips="1" connect="1" arrows="1" fold="1" page="1" pageScale="1" pageWidth="827" pageHeight="1169" math="0" shadow="0">
      <root>
        <mxCell id="WIyWlLk6GJQsqaUBKTNV-0" />
        <mxCell id="WIyWlLk6GJQsqaUBKTNV-1" parent="WIyWlLk6GJQsqaUBKTNV-0" />
        <mxCell id="Xij6A-OaMhQKtAUuacJF-8" style="edgeStyle=orthogonalEdgeStyle;rounded=0;orthogonalLoop=1;jettySize=auto;html=1;strokeColor=#B494FF;fillColor=#8B33FF;" parent="WIyWlLk6GJQsqaUBKTNV-1" source="Xij6A-OaMhQKtAUuacJF-0" edge="1">
          <mxGeometry relative="1" as="geometry">
            <mxPoint x="130" y="710" as="targetPoint" />
          </mxGeometry>
        </mxCell>
        <mxCell id="Xij6A-OaMhQKtAUuacJF-0" value="Server Details form ServiceNow" style="rounded=0;whiteSpace=wrap;html=1;strokeColor=#B494FF;fillColor=#19B2FF;" parent="WIyWlLk6GJQsqaUBKTNV-1" vertex="1">
          <mxGeometry x="70" y="550" width="120" height="50" as="geometry" />
        </mxCell>
        <mxCell id="Xij6A-OaMhQKtAUuacJF-3" value="LUPR Database" style="rounded=0;whiteSpace=wrap;html=1;strokeColor=#B494FF;fillColor=#19B2FF;" parent="WIyWlLk6GJQsqaUBKTNV-1" vertex="1">
          <mxGeometry x="294" y="680" width="120" height="50" as="geometry" />
        </mxCell>
        <mxCell id="Xij6A-OaMhQKtAUuacJF-11" style="edgeStyle=orthogonalEdgeStyle;rounded=0;orthogonalLoop=1;jettySize=auto;html=1;strokeColor=#B494FF;fillColor=#19B2FF;" parent="WIyWlLk6GJQsqaUBKTNV-1" source="Xij6A-OaMhQKtAUuacJF-4" edge="1">
          <mxGeometry relative="1" as="geometry">
            <mxPoint x="570" y="710" as="targetPoint" />
          </mxGeometry>
        </mxCell>
        <mxCell id="JsAy26KtSftcKCGTRj0d-1" style="edgeStyle=orthogonalEdgeStyle;rounded=0;orthogonalLoop=1;jettySize=auto;html=1;strokeColor=#B494FF;" edge="1" parent="WIyWlLk6GJQsqaUBKTNV-1" target="Xij6A-OaMhQKtAUuacJF-4">
          <mxGeometry relative="1" as="geometry">
            <mxPoint x="610" y="820" as="sourcePoint" />
            <Array as="points">
              <mxPoint x="610" y="710" />
              <mxPoint x="580" y="710" />
            </Array>
          </mxGeometry>
        </mxCell>
        <mxCell id="Xij6A-OaMhQKtAUuacJF-4" value="Patch Status from Ansible Tower" style="rounded=0;whiteSpace=wrap;html=1;strokeColor=#B494FF;fillColor=#19B2FF;" parent="WIyWlLk6GJQsqaUBKTNV-1" vertex="1">
          <mxGeometry x="510" y="550" width="120" height="50" as="geometry" />
        </mxCell>
        <mxCell id="Xij6A-OaMhQKtAUuacJF-5" value="LUPR Frontend" style="rounded=0;whiteSpace=wrap;html=1;strokeColor=#B494FF;fillColor=#19B2FF;" parent="WIyWlLk6GJQsqaUBKTNV-1" vertex="1">
          <mxGeometry x="294" y="800" width="120" height="50" as="geometry" />
        </mxCell>
        <mxCell id="Xij6A-OaMhQKtAUuacJF-6" value="" style="endArrow=classic;startArrow=classic;html=1;entryX=0.5;entryY=1;entryDx=0;entryDy=0;exitX=0.5;exitY=0;exitDx=0;exitDy=0;strokeColor=#B494FF;fillColor=#19B2FF;" parent="WIyWlLk6GJQsqaUBKTNV-1" source="Xij6A-OaMhQKtAUuacJF-5" target="Xij6A-OaMhQKtAUuacJF-3" edge="1">
          <mxGeometry width="50" height="50" relative="1" as="geometry">
            <mxPoint x="350" y="800" as="sourcePoint" />
            <mxPoint x="400" y="750" as="targetPoint" />
          </mxGeometry>
        </mxCell>
        <mxCell id="Xij6A-OaMhQKtAUuacJF-10" value="" style="endArrow=classic;html=1;entryX=0;entryY=0.5;entryDx=0;entryDy=0;strokeColor=#B494FF;fillColor=#19B2FF;" parent="WIyWlLk6GJQsqaUBKTNV-1" target="Xij6A-OaMhQKtAUuacJF-3" edge="1">
          <mxGeometry width="50" height="50" relative="1" as="geometry">
            <mxPoint x="130" y="705" as="sourcePoint" />
            <mxPoint x="180" y="650" as="targetPoint" />
          </mxGeometry>
        </mxCell>
        <mxCell id="Xij6A-OaMhQKtAUuacJF-16" value="" style="endArrow=classic;html=1;strokeColor=#B494FF;fillColor=#19B2FF;" parent="WIyWlLk6GJQsqaUBKTNV-1" edge="1">
          <mxGeometry width="50" height="50" relative="1" as="geometry">
            <mxPoint x="570" y="710" as="sourcePoint" />
            <mxPoint x="417" y="710" as="targetPoint" />
          </mxGeometry>
        </mxCell>
        <mxCell id="Xij6A-OaMhQKtAUuacJF-17" value="Triggered by submitting ServiceNow form" style="text;html=1;strokeColor=#FFFCFA;fillColor=none;align=center;verticalAlign=middle;whiteSpace=wrap;rounded=0;" parent="WIyWlLk6GJQsqaUBKTNV-1" vertex="1">
          <mxGeometry x="150" y="660" width="90" height="30" as="geometry" />
        </mxCell>
        <mxCell id="Xij6A-OaMhQKtAUuacJF-19" value="Updated in regular short intervals" style="text;html=1;strokeColor=#FFFCFA;fillColor=none;align=center;verticalAlign=middle;whiteSpace=wrap;rounded=0;" parent="WIyWlLk6GJQsqaUBKTNV-1" vertex="1">
          <mxGeometry x="460" y="670" width="90" height="30" as="geometry" />
        </mxCell>
        <mxCell id="JsAy26KtSftcKCGTRj0d-0" value="" style="endArrow=classic;html=1;fillColor=#e1d5e7;strokeColor=#B494FF;" edge="1" parent="WIyWlLk6GJQsqaUBKTNV-1">
          <mxGeometry width="50" height="50" relative="1" as="geometry">
            <mxPoint x="414" y="820" as="sourcePoint" />
            <mxPoint x="610" y="820" as="targetPoint" />
          </mxGeometry>
        </mxCell>
        <mxCell id="JsAy26KtSftcKCGTRj0d-2" value="Trigger Jobs in&lt;br&gt;Ansible Tower" style="text;html=1;strokeColor=#FFFCFA;fillColor=none;align=center;verticalAlign=middle;whiteSpace=wrap;rounded=0;" vertex="1" parent="WIyWlLk6GJQsqaUBKTNV-1">
          <mxGeometry x="460" y="780" width="90" height="30" as="geometry" />
        </mxCell>
      </root>
    </mxGraphModel>
  </diagram>
</mxfile>
